<mxfile host="app.diagrams.net" modified="2024-07-26T22:52:24.446Z" agent="Mozilla/5.0 (Windows NT 10.0; Win64; x64) AppleWebKit/537.36 (KHTML, like Gecko) Chrome/127.0.0.0 Safari/537.36" etag="KbcEZSQxq8-zb47fV1KI" version="24.6.5" type="device">
  <diagram name="Página-1" id="BNyZVHSPn_K23RTRlpJv">
    <mxGraphModel dx="548" dy="372" grid="1" gridSize="10" guides="1" tooltips="1" connect="1" arrows="1" fold="1" page="1" pageScale="1" pageWidth="827" pageHeight="1169" math="0" shadow="0">
      <root>
        <mxCell id="0" />
        <mxCell id="1" parent="0" />
        <mxCell id="BgWErPnJUfC2LBLmZvnZ-1" value="&lt;b&gt;Agregação&lt;/b&gt;:&lt;div&gt;&lt;ul&gt;&lt;li&gt;Relacionamento temporário / desconectável&lt;/li&gt;&lt;li&gt;Agregar e Desagregar&lt;/li&gt;&lt;li&gt;O objeto agregado tem sua própria linha de vida&lt;/li&gt;&lt;li&gt;Na agregação os objetos do relacionamento vivem um sem o outro&lt;/li&gt;&lt;/ul&gt;&lt;/div&gt;" style="text;html=1;align=left;verticalAlign=middle;whiteSpace=wrap;rounded=0;fontSize=19;" vertex="1" parent="1">
          <mxGeometry x="20" y="10" width="670" height="140" as="geometry" />
        </mxCell>
        <mxCell id="BgWErPnJUfC2LBLmZvnZ-3" value="&lt;b&gt;Composição&lt;/b&gt;:&lt;div&gt;&lt;ul&gt;&lt;li&gt;Relacionamento estável / duradouro&lt;/li&gt;&lt;li&gt;É uma relação todo/parte, a parte é apenas parte do todo&lt;/li&gt;&lt;li&gt;O objeto composto tem sua linha de vida igual ao todo&lt;/li&gt;&lt;li&gt;Na composição os objetos relacionados são interdependentes&lt;/li&gt;&lt;/ul&gt;&lt;/div&gt;" style="text;html=1;align=left;verticalAlign=middle;whiteSpace=wrap;rounded=0;fontSize=19;" vertex="1" parent="1">
          <mxGeometry x="20" y="540" width="650" height="160" as="geometry" />
        </mxCell>
        <mxCell id="BgWErPnJUfC2LBLmZvnZ-4" value="Quarto" style="swimlane;fontStyle=1;align=center;verticalAlign=top;childLayout=stackLayout;horizontal=1;startSize=26;horizontalStack=0;resizeParent=1;resizeParentMax=0;resizeLast=0;collapsible=1;marginBottom=0;whiteSpace=wrap;html=1;" vertex="1" parent="1">
          <mxGeometry x="80" y="216" width="160" height="86" as="geometry" />
        </mxCell>
        <mxCell id="BgWErPnJUfC2LBLmZvnZ-5" value="+ numero: int" style="text;strokeColor=none;fillColor=none;align=left;verticalAlign=top;spacingLeft=4;spacingRight=4;overflow=hidden;rotatable=0;points=[[0,0.5],[1,0.5]];portConstraint=eastwest;whiteSpace=wrap;html=1;" vertex="1" parent="BgWErPnJUfC2LBLmZvnZ-4">
          <mxGeometry y="26" width="160" height="26" as="geometry" />
        </mxCell>
        <mxCell id="BgWErPnJUfC2LBLmZvnZ-6" value="" style="line;strokeWidth=1;fillColor=none;align=left;verticalAlign=middle;spacingTop=-1;spacingLeft=3;spacingRight=3;rotatable=0;labelPosition=right;points=[];portConstraint=eastwest;strokeColor=inherit;" vertex="1" parent="BgWErPnJUfC2LBLmZvnZ-4">
          <mxGeometry y="52" width="160" height="8" as="geometry" />
        </mxCell>
        <mxCell id="BgWErPnJUfC2LBLmZvnZ-7" value="+ method(type): type" style="text;strokeColor=none;fillColor=none;align=left;verticalAlign=top;spacingLeft=4;spacingRight=4;overflow=hidden;rotatable=0;points=[[0,0.5],[1,0.5]];portConstraint=eastwest;whiteSpace=wrap;html=1;" vertex="1" parent="BgWErPnJUfC2LBLmZvnZ-4">
          <mxGeometry y="60" width="160" height="26" as="geometry" />
        </mxCell>
        <mxCell id="BgWErPnJUfC2LBLmZvnZ-8" value="Cliente" style="swimlane;fontStyle=1;align=center;verticalAlign=top;childLayout=stackLayout;horizontal=1;startSize=26;horizontalStack=0;resizeParent=1;resizeParentMax=0;resizeLast=0;collapsible=1;marginBottom=0;whiteSpace=wrap;html=1;" vertex="1" parent="1">
          <mxGeometry x="390" y="190" width="160" height="112" as="geometry" />
        </mxCell>
        <mxCell id="BgWErPnJUfC2LBLmZvnZ-9" value="+ cpf: CPF" style="text;strokeColor=none;fillColor=none;align=left;verticalAlign=top;spacingLeft=4;spacingRight=4;overflow=hidden;rotatable=0;points=[[0,0.5],[1,0.5]];portConstraint=eastwest;whiteSpace=wrap;html=1;" vertex="1" parent="BgWErPnJUfC2LBLmZvnZ-8">
          <mxGeometry y="26" width="160" height="26" as="geometry" />
        </mxCell>
        <mxCell id="BgWErPnJUfC2LBLmZvnZ-12" value="+ nome: String" style="text;strokeColor=none;fillColor=none;align=left;verticalAlign=top;spacingLeft=4;spacingRight=4;overflow=hidden;rotatable=0;points=[[0,0.5],[1,0.5]];portConstraint=eastwest;whiteSpace=wrap;html=1;" vertex="1" parent="BgWErPnJUfC2LBLmZvnZ-8">
          <mxGeometry y="52" width="160" height="26" as="geometry" />
        </mxCell>
        <mxCell id="BgWErPnJUfC2LBLmZvnZ-10" value="" style="line;strokeWidth=1;fillColor=none;align=left;verticalAlign=middle;spacingTop=-1;spacingLeft=3;spacingRight=3;rotatable=0;labelPosition=right;points=[];portConstraint=eastwest;strokeColor=inherit;" vertex="1" parent="BgWErPnJUfC2LBLmZvnZ-8">
          <mxGeometry y="78" width="160" height="8" as="geometry" />
        </mxCell>
        <mxCell id="BgWErPnJUfC2LBLmZvnZ-11" value="+ method(type): type" style="text;strokeColor=none;fillColor=none;align=left;verticalAlign=top;spacingLeft=4;spacingRight=4;overflow=hidden;rotatable=0;points=[[0,0.5],[1,0.5]];portConstraint=eastwest;whiteSpace=wrap;html=1;" vertex="1" parent="BgWErPnJUfC2LBLmZvnZ-8">
          <mxGeometry y="86" width="160" height="26" as="geometry" />
        </mxCell>
        <mxCell id="BgWErPnJUfC2LBLmZvnZ-13" value="Gunter" style="html=1;whiteSpace=wrap;" vertex="1" parent="1">
          <mxGeometry x="430" y="350" width="110" height="50" as="geometry" />
        </mxCell>
        <mxCell id="BgWErPnJUfC2LBLmZvnZ-19" style="edgeStyle=orthogonalEdgeStyle;rounded=0;orthogonalLoop=1;jettySize=auto;html=1;" edge="1" parent="1" source="BgWErPnJUfC2LBLmZvnZ-14" target="BgWErPnJUfC2LBLmZvnZ-13">
          <mxGeometry relative="1" as="geometry" />
        </mxCell>
        <mxCell id="BgWErPnJUfC2LBLmZvnZ-20" style="edgeStyle=orthogonalEdgeStyle;rounded=0;orthogonalLoop=1;jettySize=auto;html=1;entryX=0;entryY=0.5;entryDx=0;entryDy=0;" edge="1" parent="1" source="BgWErPnJUfC2LBLmZvnZ-14" target="BgWErPnJUfC2LBLmZvnZ-16">
          <mxGeometry relative="1" as="geometry" />
        </mxCell>
        <mxCell id="BgWErPnJUfC2LBLmZvnZ-14" value="404" style="html=1;whiteSpace=wrap;" vertex="1" parent="1">
          <mxGeometry x="145" y="350" width="110" height="50" as="geometry" />
        </mxCell>
        <mxCell id="BgWErPnJUfC2LBLmZvnZ-16" value="Gabriel" style="html=1;whiteSpace=wrap;" vertex="1" parent="1">
          <mxGeometry x="460" y="420" width="110" height="50" as="geometry" />
        </mxCell>
        <mxCell id="BgWErPnJUfC2LBLmZvnZ-21" value="Certificados" style="swimlane;fontStyle=1;align=center;verticalAlign=top;childLayout=stackLayout;horizontal=1;startSize=26;horizontalStack=0;resizeParent=1;resizeParentMax=0;resizeLast=0;collapsible=1;marginBottom=0;whiteSpace=wrap;html=1;" vertex="1" parent="1">
          <mxGeometry x="320" y="734" width="160" height="138" as="geometry" />
        </mxCell>
        <mxCell id="BgWErPnJUfC2LBLmZvnZ-22" value="+ local: String" style="text;strokeColor=none;fillColor=none;align=left;verticalAlign=top;spacingLeft=4;spacingRight=4;overflow=hidden;rotatable=0;points=[[0,0.5],[1,0.5]];portConstraint=eastwest;whiteSpace=wrap;html=1;" vertex="1" parent="BgWErPnJUfC2LBLmZvnZ-21">
          <mxGeometry y="26" width="160" height="26" as="geometry" />
        </mxCell>
        <mxCell id="BgWErPnJUfC2LBLmZvnZ-32" value="+ titulo: String" style="text;strokeColor=none;fillColor=none;align=left;verticalAlign=top;spacingLeft=4;spacingRight=4;overflow=hidden;rotatable=0;points=[[0,0.5],[1,0.5]];portConstraint=eastwest;whiteSpace=wrap;html=1;" vertex="1" parent="BgWErPnJUfC2LBLmZvnZ-21">
          <mxGeometry y="52" width="160" height="26" as="geometry" />
        </mxCell>
        <mxCell id="BgWErPnJUfC2LBLmZvnZ-33" value="+ horas: int" style="text;strokeColor=none;fillColor=none;align=left;verticalAlign=top;spacingLeft=4;spacingRight=4;overflow=hidden;rotatable=0;points=[[0,0.5],[1,0.5]];portConstraint=eastwest;whiteSpace=wrap;html=1;" vertex="1" parent="BgWErPnJUfC2LBLmZvnZ-21">
          <mxGeometry y="78" width="160" height="26" as="geometry" />
        </mxCell>
        <mxCell id="BgWErPnJUfC2LBLmZvnZ-23" value="" style="line;strokeWidth=1;fillColor=none;align=left;verticalAlign=middle;spacingTop=-1;spacingLeft=3;spacingRight=3;rotatable=0;labelPosition=right;points=[];portConstraint=eastwest;strokeColor=inherit;" vertex="1" parent="BgWErPnJUfC2LBLmZvnZ-21">
          <mxGeometry y="104" width="160" height="8" as="geometry" />
        </mxCell>
        <mxCell id="BgWErPnJUfC2LBLmZvnZ-24" value="+ method(type): type" style="text;strokeColor=none;fillColor=none;align=left;verticalAlign=top;spacingLeft=4;spacingRight=4;overflow=hidden;rotatable=0;points=[[0,0.5],[1,0.5]];portConstraint=eastwest;whiteSpace=wrap;html=1;" vertex="1" parent="BgWErPnJUfC2LBLmZvnZ-21">
          <mxGeometry y="112" width="160" height="26" as="geometry" />
        </mxCell>
        <mxCell id="BgWErPnJUfC2LBLmZvnZ-25" value="Aluno" style="swimlane;fontStyle=1;align=center;verticalAlign=top;childLayout=stackLayout;horizontal=1;startSize=26;horizontalStack=0;resizeParent=1;resizeParentMax=0;resizeLast=0;collapsible=1;marginBottom=0;whiteSpace=wrap;html=1;" vertex="1" parent="1">
          <mxGeometry x="50" y="734" width="160" height="112" as="geometry" />
        </mxCell>
        <mxCell id="BgWErPnJUfC2LBLmZvnZ-26" value="+ cpf: CPF" style="text;strokeColor=none;fillColor=none;align=left;verticalAlign=top;spacingLeft=4;spacingRight=4;overflow=hidden;rotatable=0;points=[[0,0.5],[1,0.5]];portConstraint=eastwest;whiteSpace=wrap;html=1;" vertex="1" parent="BgWErPnJUfC2LBLmZvnZ-25">
          <mxGeometry y="26" width="160" height="26" as="geometry" />
        </mxCell>
        <mxCell id="BgWErPnJUfC2LBLmZvnZ-27" value="+ nome: String" style="text;strokeColor=none;fillColor=none;align=left;verticalAlign=top;spacingLeft=4;spacingRight=4;overflow=hidden;rotatable=0;points=[[0,0.5],[1,0.5]];portConstraint=eastwest;whiteSpace=wrap;html=1;" vertex="1" parent="BgWErPnJUfC2LBLmZvnZ-25">
          <mxGeometry y="52" width="160" height="26" as="geometry" />
        </mxCell>
        <mxCell id="BgWErPnJUfC2LBLmZvnZ-28" value="" style="line;strokeWidth=1;fillColor=none;align=left;verticalAlign=middle;spacingTop=-1;spacingLeft=3;spacingRight=3;rotatable=0;labelPosition=right;points=[];portConstraint=eastwest;strokeColor=inherit;" vertex="1" parent="BgWErPnJUfC2LBLmZvnZ-25">
          <mxGeometry y="78" width="160" height="8" as="geometry" />
        </mxCell>
        <mxCell id="BgWErPnJUfC2LBLmZvnZ-29" value="+ method(type): type" style="text;strokeColor=none;fillColor=none;align=left;verticalAlign=top;spacingLeft=4;spacingRight=4;overflow=hidden;rotatable=0;points=[[0,0.5],[1,0.5]];portConstraint=eastwest;whiteSpace=wrap;html=1;" vertex="1" parent="BgWErPnJUfC2LBLmZvnZ-25">
          <mxGeometry y="86" width="160" height="26" as="geometry" />
        </mxCell>
        <mxCell id="BgWErPnJUfC2LBLmZvnZ-44" style="edgeStyle=orthogonalEdgeStyle;rounded=0;orthogonalLoop=1;jettySize=auto;html=1;entryX=0;entryY=0.5;entryDx=0;entryDy=0;" edge="1" parent="1" source="BgWErPnJUfC2LBLmZvnZ-35" target="BgWErPnJUfC2LBLmZvnZ-36">
          <mxGeometry relative="1" as="geometry" />
        </mxCell>
        <mxCell id="BgWErPnJUfC2LBLmZvnZ-45" style="edgeStyle=orthogonalEdgeStyle;rounded=0;orthogonalLoop=1;jettySize=auto;html=1;entryX=0;entryY=0.5;entryDx=0;entryDy=0;" edge="1" parent="1" source="BgWErPnJUfC2LBLmZvnZ-35" target="BgWErPnJUfC2LBLmZvnZ-37">
          <mxGeometry relative="1" as="geometry" />
        </mxCell>
        <mxCell id="BgWErPnJUfC2LBLmZvnZ-35" value="Adriana" style="html=1;whiteSpace=wrap;" vertex="1" parent="1">
          <mxGeometry x="70" y="950" width="110" height="50" as="geometry" />
        </mxCell>
        <mxCell id="BgWErPnJUfC2LBLmZvnZ-36" value="&lt;div&gt;1fbc43ae&lt;br&gt;&lt;/div&gt;Selenium&lt;div&gt;Alura&lt;/div&gt;&lt;div&gt;50h&lt;/div&gt;" style="html=1;whiteSpace=wrap;" vertex="1" parent="1">
          <mxGeometry x="340" y="900" width="110" height="50" as="geometry" />
        </mxCell>
        <mxCell id="BgWErPnJUfC2LBLmZvnZ-37" value="&lt;div&gt;1faa4fa&lt;/div&gt;Cypress&lt;div&gt;QAzando&lt;/div&gt;&lt;div&gt;100h&lt;/div&gt;" style="html=1;whiteSpace=wrap;" vertex="1" parent="1">
          <mxGeometry x="380" y="1030" width="110" height="50" as="geometry" />
        </mxCell>
        <mxCell id="BgWErPnJUfC2LBLmZvnZ-43" style="edgeStyle=orthogonalEdgeStyle;rounded=0;orthogonalLoop=1;jettySize=auto;html=1;entryX=0;entryY=0.5;entryDx=0;entryDy=0;" edge="1" parent="1" source="BgWErPnJUfC2LBLmZvnZ-41" target="BgWErPnJUfC2LBLmZvnZ-42">
          <mxGeometry relative="1" as="geometry" />
        </mxCell>
        <mxCell id="BgWErPnJUfC2LBLmZvnZ-41" value="Letícia" style="html=1;whiteSpace=wrap;" vertex="1" parent="1">
          <mxGeometry x="70" y="1070" width="110" height="50" as="geometry" />
        </mxCell>
        <mxCell id="BgWErPnJUfC2LBLmZvnZ-42" value="&lt;div&gt;&lt;span style=&quot;background-color: initial;&quot;&gt;5799231a&lt;/span&gt;&lt;/div&gt;&lt;div&gt;&lt;span style=&quot;background-color: initial;&quot;&gt;Selenium&lt;/span&gt;&lt;br&gt;&lt;/div&gt;&lt;div&gt;Alura&lt;/div&gt;&lt;div&gt;50h&lt;/div&gt;" style="html=1;whiteSpace=wrap;" vertex="1" parent="1">
          <mxGeometry x="270" y="1110" width="110" height="50" as="geometry" />
        </mxCell>
        <mxCell id="BgWErPnJUfC2LBLmZvnZ-47" value="1" style="endArrow=open;html=1;endSize=12;startArrow=diamondThin;startSize=14;startFill=0;edgeStyle=orthogonalEdgeStyle;align=left;verticalAlign=bottom;rounded=0;exitX=1;exitY=0.5;exitDx=0;exitDy=0;entryX=0;entryY=0.5;entryDx=0;entryDy=0;" edge="1" parent="1" source="BgWErPnJUfC2LBLmZvnZ-5" target="BgWErPnJUfC2LBLmZvnZ-12">
          <mxGeometry x="-1" y="3" relative="1" as="geometry">
            <mxPoint x="190" y="310" as="sourcePoint" />
            <mxPoint x="350" y="310" as="targetPoint" />
          </mxGeometry>
        </mxCell>
        <mxCell id="BgWErPnJUfC2LBLmZvnZ-48" value="hóspede" style="edgeLabel;html=1;align=center;verticalAlign=middle;resizable=0;points=[];" vertex="1" connectable="0" parent="BgWErPnJUfC2LBLmZvnZ-47">
          <mxGeometry x="-0.1228" y="-1" relative="1" as="geometry">
            <mxPoint x="4" y="-10" as="offset" />
          </mxGeometry>
        </mxCell>
        <mxCell id="BgWErPnJUfC2LBLmZvnZ-49" value="1" style="endArrow=open;html=1;endSize=12;startArrow=diamondThin;startSize=14;startFill=1;edgeStyle=orthogonalEdgeStyle;align=left;verticalAlign=bottom;rounded=0;exitX=1;exitY=0.5;exitDx=0;exitDy=0;entryX=0;entryY=0.5;entryDx=0;entryDy=0;" edge="1" parent="1" source="BgWErPnJUfC2LBLmZvnZ-27" target="BgWErPnJUfC2LBLmZvnZ-32">
          <mxGeometry x="-1" y="3" relative="1" as="geometry">
            <mxPoint x="255" y="802.66" as="sourcePoint" />
            <mxPoint x="415" y="802.66" as="targetPoint" />
          </mxGeometry>
        </mxCell>
        <mxCell id="BgWErPnJUfC2LBLmZvnZ-50" value="tem" style="edgeLabel;html=1;align=center;verticalAlign=middle;resizable=0;points=[];" vertex="1" connectable="0" parent="BgWErPnJUfC2LBLmZvnZ-49">
          <mxGeometry x="-0.0483" y="3" relative="1" as="geometry">
            <mxPoint x="-7" y="-10" as="offset" />
          </mxGeometry>
        </mxCell>
        <mxCell id="BgWErPnJUfC2LBLmZvnZ-51" value="losango fechado é composição" style="text;html=1;align=center;verticalAlign=middle;whiteSpace=wrap;rounded=0;" vertex="1" parent="1">
          <mxGeometry x="180" y="700" width="180" height="30" as="geometry" />
        </mxCell>
        <mxCell id="BgWErPnJUfC2LBLmZvnZ-52" value="losango aberto é agregação" style="text;html=1;align=center;verticalAlign=middle;whiteSpace=wrap;rounded=0;" vertex="1" parent="1">
          <mxGeometry x="180" y="170" width="180" height="30" as="geometry" />
        </mxCell>
      </root>
    </mxGraphModel>
  </diagram>
</mxfile>
